<!DOCTYPE svg PUBLIC "-//W3C//DTD SVG 1.1//EN" "http://www.w3.org/Graphics/SVG/1.1/DTD/svg11.dtd">
<!-- Uploaded to: SVG Repo, www.svgrepo.com, Transformed by: SVG Repo Mixer Tools -->
<svg fill="#333" height="198px" width="198px" version="1.1" id="Layer_1" xmlns="http://www.w3.org/2000/svg" xmlns:xlink="http://www.w3.org/1999/xlink" viewBox="0 0 512 512" xml:space="preserve" stroke="#333">
<g id="SVGRepo_bgCarrier" stroke-width="0"/>
<g id="SVGRepo_tracerCarrier" stroke-linecap="round" stroke-linejoin="round"/>
<g id="SVGRepo_iconCarrier"> <g> <g> <path d="M456.348,0H372.87v183.652c0,20.336-12.141,38.506-30.935,46.277c-17.962,7.482-39.687,4.023-54.565-10.864L256,187.701 l-31.37,31.364c-15.002,15.009-36.748,18.284-54.609,10.848c-18.749-7.756-30.89-25.925-30.89-46.261V0H55.652 C24.968,0,0,24.968,0,55.652v400.696C0,487.032,24.968,512,55.652,512h400.696C487.032,512,512,487.032,512,456.348V55.652 C512,24.968,487.032,0,456.348,0z M183.652,445.217H83.478c-9.217,0-16.696-7.473-16.696-16.696 c0-9.223,7.479-16.696,16.696-16.696h100.174c9.217,0,16.696,7.473,16.696,16.696 C200.348,437.744,192.869,445.217,183.652,445.217z M183.652,378.435H83.478c-9.217,0-16.696-7.473-16.696-16.696 c0-9.223,7.479-16.696,16.696-16.696h100.174c9.217,0,16.696,7.473,16.696,16.696 C200.348,370.962,192.869,378.435,183.652,378.435z M445.217,428.522c0,9.223-7.479,16.696-16.696,16.696H294.957 c-9.217,0-16.696-7.473-16.696-16.696v-66.783c0-9.223,7.479-16.696,16.696-16.696h133.565c9.217,0,16.696,7.473,16.696,16.696 V428.522z"/> </g> </g> <g> <g> <path d="M172.522,0v183.652c0,6.755,4.065,12.842,10.303,15.425c6.229,2.587,13.413,1.163,18.196-3.62L256,140.478l54.979,54.978 c4.838,4.84,12.055,6.173,18.195,3.62c6.24-2.581,10.305-8.668,10.305-15.423V0H172.522z"/> </g> </g> </g>
</svg>